<svg xmlns="http://www.w3.org/2000/svg" viewBox="0 0 207 217.01"><defs><style>.cls-1{fill:#894062;}</style></defs><title>ictomi</title><g id="Layer_1" data-name="Layer 1"><path class="cls-1" d="M159.82,52.54,153.41,59a56.32,56.32,0,0,1-8.77,64.56C132,137,126.1,146.42,123.31,152.92V87.14H99.05v7.68a11.17,11.17,0,0,1,2.1.17,14.65,14.65,0,0,1,10.08,6.15,14.48,14.48,0,0,1,2.79,8.64V164l15.44,0c0-10.47,14.4-26.83,21.55-34.46a65,65,0,0,0,8.81-77Zm-76,99.38c-4.36-9.25-12.69-19-21.51-28.44a56.38,56.38,0,0,1-15.14-37.3c-.56-30,24.22-56.28,54.14-57.41.74-.05,1.44-.05,2.18-.05A56.45,56.45,0,0,1,147,49.18l6.2-6.19A64.89,64.89,0,0,0,103.5,20c-.82,0-1.7,0-2.53,0C66,21.35,37.76,51.41,38.46,86.35A64.76,64.76,0,0,0,56,129.41c7.2,7.72,22.34,24.12,22.34,34.68l14.83,0v-44.8l-9.29,9.29Z"/><rect class="cls-1" x="78.26" y="168.25" width="51.21" height="6.8"/><rect class="cls-1" x="82.75" y="179.23" width="42.23" height="6.8"/><rect class="cls-1" x="87.24" y="190.21" width="33.25" height="6.8"/><rect class="cls-1" x="113.57" y="55.95" width="10.16" height="13.74"/></g></svg>