<svg id="Layer_1" data-name="Layer 1" xmlns="http://www.w3.org/2000/svg" viewBox="0 0 512.5 111.78"><defs><style>.cls-1{fill:#f6f6f6;}.cls-2{fill:#e8442e;}</style></defs><title>Artboard 1 copy</title><path class="cls-1" d="M136.65,80.79a12.86,12.86,0,0,1-9.23,3.35,13.28,13.28,0,0,1-6.73-1.63,13.56,13.56,0,0,1-4.7-4.43,19.72,19.72,0,0,1-2.72-6.32,31.45,31.45,0,0,1,0-14.63A20.27,20.27,0,0,1,116,50.79a14,14,0,0,1,4.74-4.52,13.25,13.25,0,0,1,6.69-1.67,12.71,12.71,0,0,1,8.49,2.89,15.58,15.58,0,0,1,4.79,8.22H146c-.74-5.3-2.72-9.29-5.9-12s-7.41-4-12.64-4a18.59,18.59,0,0,0-15.23,7.46,25.07,25.07,0,0,0-4,7.9,32.49,32.49,0,0,0-1.33,9.39,35.77,35.77,0,0,0,1.25,9.72A23.13,23.13,0,0,0,111.9,82a16.81,16.81,0,0,0,6.42,5.19A21,21,0,0,0,127.43,89q8.1,0,13-4.65t6.25-12.78h-5.52A15.63,15.63,0,0,1,136.65,80.79Z"/><path class="cls-1" d="M206.61,82.79c-.49-.9-.74-2.65-.74-5.24V45.48h8.37V41h-8.37V28H200.7V41h-6.3v4.51a6.46,6.46,0,0,1,6.3,6.6V79.72c0,3.37.66,5.77,2,7.18S206,89,208.65,89a20.24,20.24,0,0,0,5-.81,5.06,5.06,0,0,0,.94-.27V83.51a16.27,16.27,0,0,1-4.22.64C208.34,84.15,207.09,83.7,206.61,82.79Z"/><path class="cls-1" d="M298.44,46.62Q293.1,39.71,283,39.69c-6.59,0-11.7,2.32-15.29,7s-5.39,10.55-5.39,17.7c0,7.82,1.94,13.87,5.85,18.11A20,20,0,0,0,283,89a18.7,18.7,0,0,0,15.07-6.79c3.77-4.53,5.64-10.47,5.64-17.89C303.72,57.13,302,51.23,298.44,46.62Zm-1.1,25.17a19.29,19.29,0,0,1-2.71,6.3,13.21,13.21,0,0,1-11.62,6q-7.25,0-11.2-5.42c-2.65-3.61-3.95-8.37-3.95-14.35a31.44,31.44,0,0,1,.85-7.48,18.77,18.77,0,0,1,2.71-6.28,13.5,13.5,0,0,1,11.59-6,15,15,0,0,1,6.9,1.48,12.29,12.29,0,0,1,4.76,4.2,19.29,19.29,0,0,1,2.67,6.24,33.52,33.52,0,0,1,.89,7.85A31.3,31.3,0,0,1,297.34,71.79Z"/><path class="cls-1" d="M412.52,45.26a10.49,10.49,0,0,0-4.23-4.07,15.15,15.15,0,0,0-7.16-1.49A16.25,16.25,0,0,0,392.5,42a15.69,15.69,0,0,0-5.95,6.73A15.44,15.44,0,0,0,382,42.05c-1.92-1.56-4.79-2.35-8.58-2.35a15.83,15.83,0,0,0-8.11,2.17A14.48,14.48,0,0,0,359.64,48h-.18V41H348v4.51h0a6.46,6.46,0,0,1,6.3,6.6V87.79h5.17V62.59a37.41,37.41,0,0,1,.69-7,13.83,13.83,0,0,1,2.25-5.65,12.64,12.64,0,0,1,4.53-4,12,12,0,0,1,5.56-1.36q5.26,0,7.42,2.76c1.43,1.83,2.16,4.53,2.16,8.08V87.79h5.17V62.59a37.41,37.41,0,0,1,.69-7,13.87,13.87,0,0,1,2.24-5.65,12.92,12.92,0,0,1,4.53-4,12,12,0,0,1,5.57-1.36c3.5,0,6,.92,7.41,2.76s2.16,4.53,2.16,8.08V87.79H415V58.22a44.81,44.81,0,0,0-.52-7.22A17.29,17.29,0,0,0,412.52,45.26Z"/><path class="cls-1" d="M40.59,41v4.51A8.59,8.59,0,0,1,49,54.23V87.79h5.17V41Z"/><path class="cls-1" d="M458.11,41v4.51a8.58,8.58,0,0,1,8.37,8.77V87.79h5.17V41Z"/><rect class="cls-2" x="48.7" y="22.72" width="5.69" height="8.04"/><rect class="cls-2" x="466.22" y="22.72" width="5.69" height="8.04"/></svg>