<?xml version="1.0" encoding="utf-8"?>
<!-- Generator: Adobe Illustrator 22.1.0, SVG Export Plug-In . SVG Version: 6.00 Build 0)  -->
<svg version="1.1" id="Layer_1" xmlns="http://www.w3.org/2000/svg" xmlns:xlink="http://www.w3.org/1999/xlink" x="0px" y="0px"
	 viewBox="0 0 512.5 111.8" style="enable-background:new 0 0 512.5 111.8;" xml:space="preserve">
<style type="text/css">
	.st0{fill:#F6F6F6;}
	.st1{fill:#E8442E;}
	.st2{fill:#DADADA;}
</style>
<title>Artboard 4</title>
<g>
	<path class="st0" d="M136.6,80.8c-2.5,2.3-5.8,3.5-9.2,3.4c-2.3,0.1-4.7-0.5-6.7-1.6c-1.9-1.1-3.5-2.6-4.7-4.4
		c-1.3-1.9-2.2-4.1-2.7-6.3c-1.1-4.8-1.1-9.8,0-14.6c0.5-2.3,1.5-4.4,2.7-6.3c1.2-1.9,2.8-3.4,4.7-4.5c2-1.1,4.4-1.7,6.7-1.7
		c3.1-0.1,6.1,0.9,8.5,2.9c2.4,2.2,4.1,5,4.8,8.2h5.3c-0.7-5.3-2.7-9.3-5.9-12s-7.4-4-12.6-4c-6-0.1-11.7,2.7-15.2,7.5
		c-1.8,2.4-3.1,5-4,7.9c-0.9,3-1.4,6.2-1.3,9.4c0,3.3,0.4,6.6,1.3,9.7c0.8,2.8,2,5.5,3.8,7.8c1.7,2.2,3.9,4,6.4,5.2
		c2.9,1.3,6,1.9,9.1,1.9c5.4,0,9.7-1.6,13-4.6c3.3-3.1,5.4-7.4,6.3-12.8h-5.5C140.7,75.1,139.1,78.3,136.6,80.8z"/>
	<path class="st0" d="M206.6,82.8c-0.5-0.9-0.7-2.6-0.7-5.2V45.5h8.4V41h-8.4V28h-5.2v13h-6.3v4.5c3.6,0.1,6.4,3,6.3,6.6v27.6
		c0,3.4,0.7,5.8,2,7.2s3.3,2.1,5.9,2.1c1.7-0.1,3.4-0.3,5-0.8c0.3-0.1,0.6-0.2,0.9-0.3v-4.4c-1.4,0.4-2.8,0.6-4.2,0.6
		C208.3,84.2,207.1,83.7,206.6,82.8z"/>
	<path class="st0" d="M298.4,46.6c-3.6-4.6-8.7-6.9-15.4-6.9c-6.6,0-11.7,2.3-15.3,7s-5.4,10.6-5.4,17.7c0,7.8,1.9,13.9,5.9,18.1
		c3.8,4.2,9.2,6.5,14.8,6.5c5.8,0.2,11.4-2.3,15.1-6.8c3.8-4.5,5.6-10.5,5.6-17.9C303.7,57.1,302,51.2,298.4,46.6z M297.3,71.8
		c-0.5,2.2-1.4,4.4-2.7,6.3c-1.2,1.8-2.8,3.4-4.8,4.4c-2.1,1.1-4.5,1.7-6.9,1.6c-4.8,0-8.6-1.8-11.2-5.4c-2.6-3.6-4-8.4-4-14.4
		c0-2.5,0.3-5,0.9-7.5c0.5-2.2,1.4-4.4,2.7-6.3c2.6-3.9,7-6.1,11.6-6c2.4-0.1,4.8,0.4,6.9,1.5c1.9,1,3.6,2.4,4.8,4.2
		c1.3,1.9,2.2,4,2.7,6.2c0.6,2.6,0.9,5.2,0.9,7.9C298.2,66.9,297.9,69.4,297.3,71.8z"/>
	<path class="st0" d="M412.5,45.3c-1-1.7-2.5-3.1-4.2-4.1c-2.2-1.1-4.7-1.6-7.2-1.5c-3-0.1-6,0.7-8.6,2.3c-2.6,1.6-4.7,4-6,6.7
		c-0.9-2.6-2.5-4.9-4.5-6.7c-1.9-1.6-4.8-2.3-8.6-2.3c-2.8,0-5.7,0.7-8.1,2.2c-2.5,1.4-4.4,3.6-5.7,6.1h-0.2v-7H348v4.5l0,0
		c3.6,0.1,6.4,3,6.3,6.6v35.7h5.2V62.6c0-2.4,0.2-4.7,0.7-7c0.3-2,1.1-4,2.3-5.6c1.2-1.7,2.7-3.1,4.5-4c1.7-0.9,3.6-1.4,5.6-1.4
		c3.5,0,6,0.9,7.4,2.8c1.4,1.8,2.2,4.5,2.2,8.1v32.4h5.2V62.6c0-2.4,0.2-4.7,0.7-7c0.3-2,1.1-4,2.2-5.6c1.2-1.7,2.7-3,4.5-4
		c1.7-0.9,3.6-1.4,5.6-1.4c3.5,0,6,0.9,7.4,2.8s2.2,4.5,2.2,8.1v32.4h5.1V58.2c0-2.4-0.2-4.8-0.5-7.2C414.2,49,413.5,47,412.5,45.3z
		"/>
	<path class="st0" d="M40.6,41v4.5c4.7,0.1,8.5,4,8.4,8.7c0,0,0,0,0,0v33.5h5.2V41H40.6z"/>
	<path class="st0" d="M458.1,41v4.5c4.7,0.1,8.5,4,8.4,8.8v33.5h5.2V41H458.1z"/>
</g>
<g>
	<rect x="48.7" y="22.7" class="st1" width="5.7" height="8"/>
	<rect x="466.2" y="22.7" class="st1" width="5.7" height="8"/>
</g>
<g id="Layer_2_2_">
	<path class="st0" d="M-411.4,128.4c-2.5,2.3-5.8,3.5-9.2,3.4c-2.3,0.1-4.7-0.5-6.7-1.6c-1.9-1.1-3.5-2.6-4.7-4.4
		c-1.3-1.9-2.2-4.1-2.7-6.3c-1.1-4.8-1.1-9.8,0-14.6c0.5-2.3,1.5-4.4,2.7-6.3c1.2-1.9,2.8-3.4,4.7-4.5c2-1.1,4.4-1.7,6.7-1.7
		c3.1-0.1,6.1,0.9,8.5,2.9c2.4,2.2,4.1,5,4.8,8.2h5.3c-0.7-5.3-2.7-9.3-5.9-12s-7.4-4-12.6-4c-6-0.1-11.7,2.7-15.2,7.5
		c-1.8,2.4-3.1,5-4,7.9c-0.9,3-1.4,6.2-1.3,9.4c0,3.3,0.4,6.6,1.3,9.7c0.8,2.8,2,5.5,3.8,7.8c1.7,2.2,3.9,4,6.4,5.2
		c2.9,1.3,6,1.9,9.1,1.9c5.4,0,9.7-1.6,13-4.6c3.3-3.1,5.4-7.4,6.3-12.8h-5.5C-407.3,122.7-408.9,125.9-411.4,128.4z"/>
	<path class="st0" d="M-341.4,130.4c-0.5-0.9-0.7-2.6-0.7-5.2V93.1h8.4v-4.5h-8.4v-13h-5.2v13h-6.3v4.5c3.6,0.1,6.4,3,6.3,6.6v27.6
		c0,3.4,0.7,5.8,2,7.2c1.3,1.4,3.3,2.1,5.9,2.1c1.7-0.1,3.4-0.3,5-0.8c0.3-0.1,0.6-0.2,0.9-0.3v-4.4c-1.4,0.4-2.8,0.6-4.2,0.6
		C-339.7,131.7-340.9,131.3-341.4,130.4z"/>
	<path class="st0" d="M-249.6,94.2c-3.6-4.6-8.7-6.9-15.4-6.9c-6.6,0-11.7,2.3-15.3,7s-5.4,10.6-5.4,17.7c0,7.8,1.9,13.9,5.9,18.1
		c3.8,4.2,9.2,6.5,14.8,6.5c5.8,0.2,11.4-2.3,15.1-6.8c3.8-4.5,5.6-10.5,5.6-17.9C-244.3,104.7-246,98.8-249.6,94.2z M-250.7,119.4
		c-0.5,2.2-1.4,4.4-2.7,6.3c-1.2,1.8-2.8,3.4-4.8,4.4c-2.1,1.1-4.5,1.7-6.9,1.6c-4.8,0-8.6-1.8-11.2-5.4c-2.6-3.6-4-8.4-4-14.4
		c0-2.5,0.3-5,0.9-7.5c0.5-2.2,1.4-4.4,2.7-6.3c2.6-3.9,7-6.1,11.6-6c2.4-0.1,4.8,0.4,6.9,1.5c1.9,1,3.6,2.4,4.8,4.2
		c1.3,1.9,2.2,4,2.7,6.2c0.6,2.6,0.9,5.2,0.9,7.9C-249.8,114.5-250.1,117-250.7,119.4z"/>
	<path class="st0" d="M-135.5,92.9c-1-1.7-2.5-3.1-4.2-4.1c-2.2-1.1-4.7-1.6-7.2-1.5c-3-0.1-6,0.7-8.6,2.3c-2.6,1.6-4.7,4-6,6.7
		c-0.9-2.6-2.5-4.9-4.5-6.7c-1.9-1.6-4.8-2.3-8.6-2.3c-2.8,0-5.7,0.7-8.1,2.2c-2.5,1.4-4.4,3.6-5.7,6.1h-0.2v-7H-200v4.5l0,0
		c3.6,0.1,6.4,3,6.3,6.6v35.7h5.2v-25.2c0-2.4,0.2-4.7,0.7-7c0.3-2,1.1-4,2.3-5.6c1.2-1.7,2.7-3.1,4.5-4c1.7-0.9,3.6-1.4,5.6-1.4
		c3.5,0,6,0.9,7.4,2.8c1.4,1.8,2.2,4.5,2.2,8.1v32.4h5.2v-25.2c0-2.4,0.2-4.7,0.7-7c0.3-2,1.1-4,2.2-5.6c1.2-1.7,2.7-3,4.5-4
		c1.7-0.9,3.6-1.4,5.6-1.4c3.5,0,6,0.9,7.4,2.8s2.2,4.5,2.2,8.1v32.4h5.1v-29.6c0-2.4-0.2-4.8-0.5-7.2
		C-133.8,96.6-134.5,94.6-135.5,92.9z"/>
	<path class="st0" d="M-507.4,88.6v4.5c4.7,0.1,8.5,4,8.4,8.7c0,0,0,0,0,0v33.5h5.2V88.6H-507.4z"/>
	<path class="st0" d="M-89.9,88.6v4.5c4.7,0.1,8.5,4,8.4,8.8v33.5h5.2V88.6H-89.9z"/>
	<path class="st2" d="M-261.9-9l-3,3.1c5.1,10.3,3.5,22.8-4.1,31.5c-5.9,6.5-8.6,11.2-9.9,14.3v-32h-11.3v3.7c0.3,0,0.7,0,1,0.1
		c1.9,0.3,3.6,1.4,4.7,3c0.9,1.2,1.3,2.7,1.3,4.2v26.4h7.2c0-5.1,6.7-13.1,10-16.8C-256.9,18.1-255.2,3.1-261.9-9L-261.9-9z
		 M-297.2,39.4c-2-4.5-5.9-9.3-10-13.9c-4.4-5-6.9-11.5-7-18.2c-0.3-14.6,11.3-27.4,25.2-28c0.3,0,0.7,0,1,0
		c7.9,0.1,15.4,3.7,20.2,10l2.8-3c-5.6-7-14.1-11.2-23.1-11.2c-0.4,0-0.8,0-1.2,0c-16.3,0.6-29.4,15.3-29.1,32.3
		c0.1,7.7,3,15.2,8.1,21c3.3,3.8,10.4,11.8,10.4,16.9h6.9V23.5l-4.3,4.5L-297.2,39.4z"/>
	<rect x="-299.8" y="47.4" class="st2" width="23.8" height="3.3"/>
	<rect x="-297.7" y="52.7" class="st2" width="19.7" height="3.3"/>
	<rect x="-295.6" y="58.1" class="st2" width="15.5" height="3.3"/>
	<rect x="-499.3" y="70.3" class="st1" width="5.7" height="8"/>
	<rect x="-81.8" y="70.3" class="st1" width="5.7" height="8"/>
	<rect x="-283.4" y="-7.3" class="st1" width="4.7" height="6.7"/>
</g>
<g>
	<path class="st2" d="M104.3,229.6h-1.2c-16.3,0.6-29.4,15.3-29.1,32.3c0.1,7.8,3,15.2,8.1,21c3.3,3.8,10.4,11.8,10.4,16.9h6.9
		v-21.9l-4.3,4.5l0,11.4c-2-4.5-5.9-9.3-10-13.9c-4.4-5-6.9-11.5-7-18.2c-0.3-14.6,11.3-27.4,25.2-28h1c7.9,0.1,15.4,3.8,20.2,10
		l2.8-3C121.8,233.7,113.3,229.6,104.3,229.6z M130.5,245.4l-3,3.1c5.1,10.3,3.5,22.8-4.1,31.5c-5.9,6.5-8.6,11.2-9.9,14.3v5.4h2.9
		c0-5.1,6.7-13.1,10-16.8C135.5,272.5,137.1,257.5,130.5,245.4z"/>
	<rect x="92.6" y="301.8" class="st2" width="23.8" height="3.3"/>
	<rect x="94.6" y="307.1" class="st2" width="19.7" height="3.3"/>
	<rect x="96.7" y="312.5" class="st2" width="15.5" height="3.3"/>
</g>
<g>
	<rect x="109" y="247" class="st1" width="4.7" height="6.7"/>
	<path class="st1" d="M113.5,262.3v37.4h-4.3v-26.4c0-1.5-0.4-3-1.3-4.2c-1.1-1.6-2.8-2.7-4.7-3c-0.3,0-0.7-0.1-1-0.1v-3.7H113.5z"
		/>
</g>
</svg>
