<svg id="Layer_1" data-name="Layer 1" xmlns="http://www.w3.org/2000/svg" viewBox="0 0 105.46 104"><defs><style>.cls-1{fill:#dadada;}.cls-2{fill:#e8442e;}</style></defs><title>Artboard 3</title><path class="cls-1" d="M52.72,8.9H51.55c-16.27.64-29.42,15.29-29.1,32.31a32.35,32.35,0,0,0,8.14,21C33.94,66,41,74,41,79.11h6.9V57.21l-4.32,4.53,0,11.36c-2-4.51-5.91-9.27-10-13.87a28,28,0,0,1-7-18.17c-.26-14.61,11.27-27.42,25.2-28h1A25.87,25.87,0,0,1,73,23.06l2.81-3A29.72,29.72,0,0,0,52.72,8.9ZM79,24.73l-3,3.1A28.52,28.52,0,0,1,71.88,59.3C66,65.84,63.25,70.46,62,73.62V79h2.9c0-5.1,6.7-13.07,10-16.79A32.89,32.89,0,0,0,79,24.73Z"/><rect class="cls-1" x="41.01" y="81.09" width="23.83" height="3.31"/><rect class="cls-1" x="43.09" y="86.44" width="19.65" height="3.31"/><rect class="cls-1" x="45.18" y="91.79" width="15.47" height="3.31"/><rect class="cls-2" x="57.44" y="26.37" width="4.73" height="6.7"/><path class="cls-2" d="M62,41.62V79H57.67V52.65a7.45,7.45,0,0,0-1.3-4.21,6.84,6.84,0,0,0-4.69-3,6.74,6.74,0,0,0-1-.08V41.62Z"/></svg>